<?xml version="1.0" encoding="utf-8"?>
<!-- Generator: Adobe Illustrator 25.2.1, SVG Export Plug-In . SVG Version: 6.00 Build 0)  -->
<svg version="1.1" xmlns="http://www.w3.org/2000/svg" xmlns:xlink="http://www.w3.org/1999/xlink" x="0px" y="0px"
	 viewBox="0 0 261.89 170.11" style="enable-background:new 0 0 261.89 170.11;" xml:space="preserve">
<style type="text/css">
	.st0{fill:none;stroke:#000000;stroke-width:6;stroke-linecap:round;stroke-linejoin:round;}
	.st1{fill:none;stroke:#000000;stroke-width:6;stroke-miterlimit:10;}
	.st2{fill:none;stroke:#000000;stroke-width:3;stroke-miterlimit:10;}
	.st3{font-family:'Impact';}
	.st4{font-size:28px;}
	.st5{font-family:'MyriadPro-Regular';}
	.st6{font-size:18px;}
</style>
<g id="Layer_1">
</g>
<g id="Layer_2">
	<g>
		<g>
			<path class="st0" d="M223.46,117.51c-0.44,1.16-0.69,2.41-0.69,3.72c0,5.79,4.71,10.5,10.5,10.5c3.89,0,7.28-2.13,9.1-5.28"/>
			<path class="st0" d="M222.55,117.08c-0.5,1.29-0.79,2.69-0.79,4.15c0,6.34,5.16,11.5,11.5,11.5c4.29,0,8.03-2.36,10.01-5.85"/>
			<path class="st1" d="M222.55,117.08l-101.2-47.85c0,0-12.8-7.2-12.8-24c0-13.2,12.4-22,22.4-22.4c10-0.4,22,7.6,22.4,26.4"/>
			<line class="st1" x1="242.36" y1="126.45" x2="243.27" y2="126.88"/>
			<line class="st1" x1="222.55" y1="117.08" x2="223.46" y2="117.51"/>
		</g>
		<g>
			<path class="st0" d="M38.78,117.51c0.44,1.16,0.69,2.41,0.69,3.72c0,5.79-4.71,10.5-10.5,10.5c-3.89,0-7.28-2.13-9.1-5.28"/>
			<path class="st0" d="M39.68,117.08c0.5,1.29,0.79,2.69,0.79,4.15c0,6.34-5.16,11.5-11.5,11.5c-4.29,0-8.03-2.36-10.01-5.85"/>
			<line class="st1" x1="39.68" y1="117.08" x2="113.76" y2="79.63"/>
			<line class="st1" x1="19.87" y1="126.45" x2="18.96" y2="126.88"/>
			<line class="st1" x1="39.68" y1="117.08" x2="38.78" y2="117.51"/>
		</g>
		<line class="st2" x1="21.76" y1="147.23" x2="99.76" y2="147.23"/>
		<line class="st2" x1="160.16" y1="147.23" x2="240.56" y2="147.23"/>
		<text transform="matrix(1.1762 0 0 1 64.5493 134.9535)" class="st3 st4">CLOTHING</text>
		<text transform="matrix(1 0 0 1 110.9913 151.2628)" class="st5 st6">store</text>
	</g>
</g>
</svg>
